<svg height="512pt" viewBox="-64 0 512 512.00039" width="512pt" xmlns="http://www.w3.org/2000/svg"><path d="m91.179688 74.875c3.972656-.664062 8.046874-1.027344 12.203124-1.027344h177.230469c4.160157 0 8.234375.363282 12.203125 1.027344l30.160156-52.777344c3.011719-5.273437 2.492188-11.851562-1.3125-16.582031-3.804687-4.734375-10.121093-6.652344-15.917968-4.84375l-72.289063 22.59375-33.628906-21.019531c-4.789063-2.992188-10.867187-2.992188-15.65625 0l-33.628906 21.019531-72.292969-22.59375c-5.796875-1.808594-12.109375.109375-15.914062 4.84375-3.804688 4.730469-4.328126 11.308594-1.3125 16.582031zm0 0"/><path d="m382.65625 407.386719-98.777344-215.519531c22.910156-1.675782 41.042969-20.839844 41.042969-44.171876 0-24.433593-19.875-44.308593-44.308594-44.308593h-177.230469c-24.429687 0-44.304687 19.875-44.304687 44.308593 0 23.332032 18.132813 42.496094 41.042969 44.171876l-98.777344 215.519531c-.882812 1.929687-1.34375 4.027343-1.34375 6.152343 0 54.292969 44.171875 98.460938 98.460938 98.460938h187.078124c54.289063 0 98.460938-44.167969 98.460938-98.460938 0-2.125-.457031-4.222656-1.34375-6.152343zm-151.273438-87.386719c8.15625 0 14.769532 6.613281 14.769532 14.769531v19.691407c0 24.742187-16.679688 45.644531-39.382813 52.089843v26.679688c0 8.15625-6.613281 14.769531-14.769531 14.769531s-14.769531-6.613281-14.769531-14.769531v-24.613281h-24.613281c-8.160157 0-14.769532-6.613282-14.769532-14.769532s6.609375-14.769531 14.769532-14.769531h39.382812c13.574219 0 24.613281-11.042969 24.613281-24.617187v-4.921876h-63.996093c-8.160157 0-14.769532-6.613281-14.769532-14.769531v-19.691406c0-24.742187 16.679688-45.644531 39.382813-52.089844v-26.679687c0-8.15625 6.613281-14.769532 14.769531-14.769532s14.769531 6.613282 14.769531 14.769532v24.617187h24.613281c8.15625 0 14.769532 6.609375 14.769532 14.765625 0 8.160156-6.613282 14.769532-14.769532 14.769532h-39.382812c-13.574219 0-24.617188 11.042968-24.617188 24.617187v4.921875zm0 0"/></svg>