<?xml version="1.0" encoding="iso-8859-1"?>
<!-- Generator: Adobe Illustrator 19.0.0, SVG Export Plug-In . SVG Version: 6.00 Build 0)  -->
<svg version="1.1" id="Layer_1" xmlns="http://www.w3.org/2000/svg" xmlns:xlink="http://www.w3.org/1999/xlink" x="0px" y="0px"
	 viewBox="0 0 512 512" style="enable-background:new 0 0 512 512;" xml:space="preserve">
<g>
	<g>
		<path d="M116.87,100.174h-16.696v33.391h16.696c9.206,0,16.696-7.49,16.696-16.696S126.076,100.174,116.87,100.174z"/>
	</g>
</g>
<g>
	<g>
		<path d="M478.609,442.141C498,435.227,512,416.868,512,395.13v-33.391c0-23.228-15.968-42.633-37.451-48.273l-22.581-67.738
			c-6.826-20.484-25.914-34.251-47.511-34.251H274.5c-21.597,0-40.685,13.766-47.511,34.245l-22.583,67.743
			c-21.482,5.64-37.449,25.045-37.449,48.273v33.391c0,21.737,14,40.096,33.391,47.01v19.772c0,5.882,1.207,11.448,3.076,16.696
			h-69.859V265.797c56.544-8.145,100.174-56.777,100.174-115.536V116.87C233.739,52.429,181.315,0,116.87,0S0,52.429,0,116.87
			v33.391c0,58.759,43.63,107.391,100.174,115.536v212.812H16.696C7.479,478.609,0,486.082,0,495.304
			C0,504.527,7.479,512,16.696,512h478.609c9.217,0,16.696-7.473,16.696-16.696c0-9.223-7.479-16.696-16.696-16.696h-19.772
			c1.87-5.248,3.076-10.813,3.076-16.696V442.141z M100.174,166.957v16.696c0,9.223-7.479,16.696-16.696,16.696
			s-16.696-7.473-16.696-16.696v-33.391V83.478c0-9.223,7.479-16.696,16.696-16.696h33.391c27.619,0,50.087,22.468,50.087,50.087
			c0,27.619-22.468,50.087-50.087,50.087H100.174z M258.664,256.283c2.283-6.826,8.642-11.413,15.838-11.413h129.957
			c7.196,0,13.555,4.587,15.837,11.419l18.454,55.364c-60.789,0-136.058,0-198.544,0L258.664,256.283z M217.043,411.826
			c-9.206,0-16.696-7.49-16.696-16.696v-33.391c0-9.206,7.49-16.696,16.696-16.696h21.362l22.261,66.783H217.043z M297.445,478.609
			c1.87-5.248,3.076-10.813,3.076-16.696v-16.696h77.913v16.696c0,5.882,1.207,11.448,3.076,16.696H297.445z M461.913,411.826
			h-43.622l22.261-66.783h21.362c9.206,0,16.696,7.49,16.696,16.696v33.391C478.609,404.336,471.119,411.826,461.913,411.826z"/>
	</g>
</g>
<g>
</g>
<g>
</g>
<g>
</g>
<g>
</g>
<g>
</g>
<g>
</g>
<g>
</g>
<g>
</g>
<g>
</g>
<g>
</g>
<g>
</g>
<g>
</g>
<g>
</g>
<g>
</g>
<g>
</g>
</svg>
