<svg height="438pt" viewBox="0 -110 438 437" width="438pt" xmlns="http://www.w3.org/2000/svg"><path d="m140.171875 70.085938h157.65625v77.703124h-157.65625zm0 0"/><path d="m415.101562 48.953125h-10.9375v114.585937h10.9375c12.640626-.015624 22.886719-10.257812 22.898438-22.902343v-68.789063c-.015625-12.640625-10.261719-22.882812-22.898438-22.894531zm0 0"/><path d="m361.265625.5h-43.4375v216.875h43.4375c12.640625-.015625 22.886719-10.257812 22.898437-22.898438v-171.078124c-.011718-12.640626-10.257812-22.882813-22.898437-22.898438zm0 0"/><path d="m53.835938 23.398438v171.078124c.011718 12.640626 10.257812 22.886719 22.898437 22.898438h43.4375v-216.875h-43.4375c-12.640625.015625-22.886719 10.257812-22.898437 22.898438zm0 0"/><path d="m0 71.851562v68.785157c.0117188 12.644531 10.257812 22.886719 22.898438 22.902343h10.9375v-114.585937h-10.9375c-12.640626.011719-22.882813 10.257813-22.898438 22.898437zm0 0"/></svg>