<svg height="512pt" viewBox="-9 0 511 512" width="512pt" xmlns="http://www.w3.org/2000/svg"><path d="m80.246094 352.628906 20.765625-12.175781c9.238281-5.417969 20.679687-5.355469 29.855469.164063l19.429687 11.679687c9.386719 5.644531 19.941406 8.46875 30.503906 8.46875 10.339844 0 20.6875-2.710937 29.941407-8.136719l20.765624-12.175781c9.238282-5.417969 20.679688-5.355469 29.859376.164063l19.425781 11.679687c18.585937 11.171875 41.746093 11.296875 60.449219.332031l20.765624-12.175781c9.238282-5.417969 20.675782-5.355469 29.855469.164063l19.425781 11.679687c18.585938 11.171875 41.746094 11.296875 60.449219.332031l20.785157-12.1875-15.171876-25.878906-20.789062 12.1875c-9.222656 5.410156-20.648438 5.347656-29.8125-.164062l-19.429688-11.679688c-15.6875-9.433594-34.644531-11-51.429687-4.660156v-229.566406c0-27.945313 22.734375-50.679688 50.679687-50.679688h25.433594v-30h-25.4375c-44.484375 0-80.675781 36.191406-80.675781 80.679688v24.523437h-125.824219v-24.523437c0-27.945313 22.734375-50.679688 50.679688-50.679688h25.433594v-30h-25.433594c-44.488282 0-80.679688 36.191406-80.679688 80.679688v248.023437c-1.476562-.585937-2.921875-1.28125-4.3125-2.117187l-19.425781-11.679688c-18.59375-11.179688-41.773437-11.308594-60.488281-.332031l-20.769532 12.175781c-9.222656 5.410156-20.648437 5.347656-29.8125-.164062l-19.300781-11.601563-15.457031 25.710937 19.300781 11.601563c18.582031 11.171875 41.742188 11.296875 60.445313.332031zm216.007812-26.042968-19.429687-11.679688c-18.59375-11.179688-41.773438-11.308594-60.488281-.332031l-16.269532 9.539062v-81.5625h125.824219v84.296875c-9.195313 5.308594-20.53125 5.214844-29.636719-.261718zm29.632813-191.382813v77.347656h-125.820313v-77.347656zm0 0"/><path d="m80.246094 428.246094 20.765625-12.175782c9.238281-5.417968 20.679687-5.355468 29.855469.164063l19.429687 11.679687c18.582031 11.171876 41.742187 11.296876 60.445313.332032l20.765624-12.175782c9.238282-5.417968 20.679688-5.355468 29.859376.164063l19.425781 11.679687c18.582031 11.171876 41.742187 11.300782 60.449219.332032l20.765624-12.175782c9.238282-5.417968 20.675782-5.355468 29.855469.164063l19.425781 11.679687c9.390626 5.644532 19.945313 8.46875 30.503907 8.46875 10.34375 0 20.691406-2.710937 29.945312-8.136718l20.785157-12.1875-15.175782-25.878906-20.785156 12.1875c-9.226562 5.410156-20.648438 5.347656-29.8125-.164063l-19.429688-11.679687c-18.59375-11.183594-41.769531-11.308594-60.488281-.332032l-20.765625 12.175782c-9.222656 5.410156-20.648437 5.347656-29.8125-.164063l-19.425781-11.679687c-18.597656-11.183594-41.777344-11.308594-60.492187-.332032l-20.765626 12.175782c-9.222656 5.410156-20.648437 5.347656-29.8125-.164063l-19.425781-11.679687c-18.597656-11.183594-41.777343-11.308594-60.492187-.332032l-20.765625 12.175782c-9.226563 5.410156-20.648438 5.347656-29.8125-.164063l-19.300781-11.601563-15.460938 25.707032 19.300781 11.605468c18.582031 11.171876 41.742188 11.300782 60.445313.332032zm0 0"/><path d="m456.5625 477.984375c-9.226562 5.410156-20.648438 5.347656-29.8125-.164063l-19.429688-11.679687c-18.59375-11.183594-41.773437-11.3125-60.488281-.335937l-20.765625 12.179687c-9.226562 5.410156-20.648437 5.347656-29.8125-.164063l-19.429687-11.679687c-18.59375-11.183594-41.773438-11.308594-60.488281-.335937l-20.765626 12.179687c-9.222656 5.40625-20.648437 5.347656-29.8125-.164063l-19.429687-11.679687c-18.59375-11.183594-41.773437-11.308594-60.488281-.335937l-20.765625 12.179687c-9.226563 5.40625-20.648438 5.347656-29.8125-.164063l-19.300781-11.605468-15.460938 25.710937 19.300781 11.605469c18.578125 11.167969 41.742188 11.296875 60.445313.332031l20.765625-12.179687c9.238281-5.417969 20.679687-5.351563 29.855469.164062l19.429687 11.683594c18.582031 11.171875 41.742187 11.296875 60.445313.332031l20.765624-12.179687c9.238282-5.417969 20.679688-5.351563 29.859376.164062l19.425781 11.683594c18.582031 11.167969 41.742187 11.296875 60.449219.332031l20.765624-12.179687c9.238282-5.417969 20.675782-5.351563 29.855469.164062l19.425781 11.683594c9.390626 5.644531 19.945313 8.46875 30.503907 8.46875 10.34375 0 20.691406-2.710938 29.945312-8.136719l20.785157-12.191406-15.175782-25.878906zm0 0"/></svg>